# AST/ASF file generated using VICON BodyLanguage
# -----------------------------------------------
:version 1.10
:name VICON
:units
  mass 1.0
  length 0.45
  angle deg
:documentation
   .ast/.asf automatically generated from VICON data using
   VICON BodyBuilder and BodyLanguage model FoxedUp or BRILLIANT.MOD
:root
   order TX TY TZ RX RY RZ
   axis XYZ
   position 0 0 0  
   orientation 0 0 0 
:bonedata
  begin
     id 1 
     name lhipjoint
     direction 0.623415 -0.642378 0.445763 
     length 2.49859 
     axis 0 0 0  XYZ
  end
  begin
     id 2 
     name lfemur
     direction 0.34202 -0.939693 0  
     length 6.69689  
     axis 0 0 20  XYZ
    dof rx ry rz
    limits (-160.0 20.0)
           (-70.0 70.0)
           (-60.0 70.0)
  end
  begin
     id 3 
     name ltibia
     direction 0.34202 -0.939693 0   
     length 7.37574   
     axis 0 0 20   XYZ
    dof rx
    limits (-10.0 170.0)
  end
  begin
     id 4 
     name lfoot
     direction 0.084323 -0.231675 0.969132   
     length 2.09111   
     axis -90 7.62852e-016 20   XYZ
    dof rx rz
    limits (-45.0 90.0)
           (-70.0 20.0)
  end
  begin
     id 5 
     name ltoes
     direction 1.5357e-011 -4.21957e-011 1   
     length 1.04989   
     axis -90 7.62852e-016 20   XYZ
    dof rx
    limits (-90.0 20.0)
  end
  begin
     id 6 
     name rhipjoint
     direction -0.605402 -0.653903 0.45376   
     length 2.45455  
     axis 0 0 0  XYZ 
  end
  begin
     id 7 
     name rfemur
     direction -0.34202 -0.939693 0   
     length 6.64523   
     axis 0 0 -20   XYZ
    dof rx ry rz
    limits (-160.0 20.0)
           (-70.0 70.0)
           (-70.0 60.0)
  end
  begin
     id 8 
     name rtibia
     direction -0.34202 -0.939693 0   
     length 7.3339   
     axis 0 0 -20   XYZ
    dof rx
    limits (-10.0 170.0)
 end
 begin
     id 9 
     name rfoot
     direction -0.120854 -0.332043 0.93549   
     length 2.23135  
     axis -90 -7.62852e-016 -20   XYZ
    dof rx rz
    limits (-45.0 90.0)
           (-20.0 70.0)
  end
  begin
     id 10 
     name rtoes
     direction -1.53563e-011 -4.21914e-011 1   
     length 1.10614   
     axis -90 -7.62852e-016 -20   XYZ
    dof rx
    limits (-90.0 20.0)
  end
  begin
     id 11 
     name lowerback
     direction 0.0319682 0.998615 -0.0417941   
     length 2.02718   
     axis 0 0 0   XYZ
    dof rx ry rz
    limits (-20.0 45.0)
           (-30.0 30.0)
           (-30.0 30.0)
  end
  begin
     id 12 
     name upperback
     direction 7.63181e-005 0.995808 0.0914691   
     length 1.97539   
     axis 0 0 0   XYZ
    dof rx ry rz
    limits (-20.0 45.0)
           (-30.0 30.0)
           (-30.0 30.0)
  end
  begin
     id 13 
     name thorax
     direction -0.016423 0.993627 0.111514   
     length 2.00349   
     axis 0 0 0   XYZ
    dof rx ry rz
    limits (-20.0 45.0)
           (-30.0 30.0)
           (-30.0 30.0)
  end
  begin
     id 14 
     name lowerneck
     direction -0.174763 0.981668 -0.0760716   
     length 1.71436   
     axis 0 0 0   XYZ
    dof rx ry rz
    limits (-20.0 45.0)
           (-30.0 30.0)
           (-30.0 30.0)
  end
  begin
     id 15 
     name upperneck
     direction 0.345458 0.934587 -0.0848868   
     length 1.72805   
     axis 0 0 0   XYZ
    dof rx ry rz
    limits (-20.0 45.0)
           (-30.0 30.0)
           (-30.0 30.0)
  end
  begin
     id 16
     name head
     direction 0.13001 0.989848 -0.0574291  
     length 1.767  
     axis 0 0 0   XYZ
    dof rx ry rz
    limits (-20.0 45.0)
           (-30.0 30.0)
           (-30.0 30.0)
  end
  begin
     id 17 
     name lclavicle
     direction 0.952951 0.290122 0.0878234  
     length 3.54654  
     axis 0 0 0   XYZ
    dof ry rz
    limits (-20.0 10.0)
           (0.0 20.0)
  end
  begin
     id 18 
     name lhumerus
     direction 1 -4.48957e-011 -4.56525e-028   
     length 5.19807   
     axis 180 -30 -90   XYZ
    dof rx ry rz
    limits (-60.0 90.0)
           (-90.0 90.0)
           (-90.0 90.0)
  end
  begin
     id 19
     name lradius
     direction 1 -4.48979e-011 -2.0317e-027   
     length 3.0937   
     axis 180 -30 -90   XYZ
    dof rx
    limits (-10.0 170.0)
  end
  begin
     id 20
     name lwrist
     direction 1 -4.48953e-011 -3.05809e-027   
     length 1.54685   
     axis 8.48514e-016 90 90   XYZ
    dof ry
    limits (-180.0 0.0)
 end
  begin
     id 21 
     name lhand
     direction 1 -4.48952e-011 -6.11639e-027   
     length 0.672632   
     axis 3.9013e-015 90 90   XYZ
    dof rx rz
    limits (-90.0 90.0)
           (-45.0 45.0)
  end
  begin
     id 22 
     name lfingers
     direction 1 -4.48925e-011 -1.22426e-026   
     length 0.542293   
     axis 7.80276e-015 90 90   XYZ
    dof rx
    limits (0.0 90.0)
  end
  begin
     id 23
     name lthumb
     direction 0.707107 -6.3486e-011 0.707107   
     length 0.778628   
     axis -90 45 5.37419e-014   XYZ
    dof rx rz
    limits (-45.0 45.0)
           (-45.0 45.0)
  end
  begin
     id 24 
     name rclavicle
     direction -0.960732 0.273675 -0.0457849   
     length 3.52079  
     axis 0 0 0   XYZ 
    dof ry rz
    limits (-10.0 20.0)
           (-20.0 0.0)
  end
  begin
     id 25 
     name rhumerus
     direction -1 -4.48976e-011 -1.63613e-027  
     length 5.45222   
     axis 180 30 90   XYZ
    dof rx ry rz
    limits (-90.0 60.0)
           (-90.0 90.0)
           (-90.0 90.0)
  end
  begin
     id 26 
     name rradius
     direction -1 -4.48957e-011 -7.00033e-028   
     length 3.01284   
     axis 180 30 90   XYZ
    dof rx
    limits (-10.0 170.0)
  end
  begin
     id 27 
     name rwrist
     direction -1 -4.48983e-011 -3.05543e-027   
     length 1.50642   
     axis 8.48514e-016 -90 -90   XYZ
    dof ry
    limits (-180.0 0.0)
  end
  begin
     id 28
     name rhand
     direction -1 -4.48984e-011 -6.11072e-027   
     length 0.622296   
     axis 3.9013e-015 -90 -90   XYZ
    dof rx rz
    limits (-90.0 90.0)
           (-45.0 45.0)
  end
  begin
     id 29
     name rfingers
     direction -1 -4.48865e-011 -1.22637e-026   
     length 0.501711   
     axis 7.80276e-015 -90 -90   XYZ
    dof rx
    limits (0.0 90.0)
  end
  begin
     id 30
     name rthumb
     direction -0.707107 -6.34932e-011 0.707107   
     length 0.72036   
     axis -90 -45 -5.37419e-014   XYZ
    dof rx rz
    limits (-45.0 45.0)
           (-45.0 45.0)
  end
:hierarchy
  begin
    root lhipjoint rhipjoint lowerback
    lhipjoint lfemur
    lfemur ltibia
    ltibia lfoot
    lfoot ltoes
    rhipjoint rfemur
    rfemur rtibia
    rtibia rfoot
    rfoot rtoes
    lowerback upperback
    upperback thorax
    thorax lowerneck lclavicle rclavicle
    lowerneck upperneck
    upperneck head
    lclavicle lhumerus
    lhumerus lradius
    lradius lwrist
    lwrist lhand lthumb
    lhand lfingers
    rclavicle rhumerus
    rhumerus rradius
    rradius rwrist
    rwrist rhand rthumb
    rhand rfingers
  end

#!OML:ASF H:\Not Pregnant\Project 1\Capture day 1\Session 1\non-pregnant.ASF
:FULLY-SPECIFIED
:DEGREES
550
root -4.30542 16.1901 4.96177 134.572 -83.795 -121.759
lowerback -2.59471 1.88828 3.37636
upperback -7.57865 2.35906 0.562743
thorax -6.31224 0.888713 -1.35405
lowerneck 22.5764 -10.8524 -29.0348
upperneck -6.60774 -23.6824 43.4504
head 4.38208 -15.1909 21.6045
rclavicle -9.41742e-015 -9.93923e-015
rhumerus -31.9834 -8.74646 -76.4562
rradius 29.3979
rwrist 22.4994
rhand -13.1542 2.89125
rfingers 7.12502
rthumb 12.9445 -26.6872
lclavicle -9.41742e-015 -9.93923e-015
lhumerus -46.1354 -4.35318 88.1978
lradius 34.0347
lwrist 35.4555
lhand -13.8477 -12.7779
lfingers 7.12502
lthumb 12.276 16.8418
rfemur -26.3337 0.741766 26.8432
rtibia 37.4959
rfoot -24.9283 15.0889
rtoes -10.8293
lfemur -29.0702 7.1447 -20.4747
ltibia 42.5098
lfoot -24.7743 2.24458
ltoes -14.5705
551
root -4.31076 16.1905 4.90623 133.546 -83.9343 -120.695
lowerback -2.72165 1.71276 2.95975
upperback -7.55615 2.11011 0.480936
thorax -6.23598 0.788891 -1.19707
lowerneck 22.7754 -10.8585 -28.7803
upperneck -6.81945 -23.7126 43.7658
head 4.33133 -15.2861 21.7893
rclavicle 9.46712e-015 6.75868e-015
rhumerus -32.2558 -9.28268 -76.4918
rradius 29.2445
rwrist 22.6986
rhand -13.2274 2.87653
rfingers 7.12502
rthumb 12.874 -26.7064
lclavicle 9.46712e-015 6.75868e-015
lhumerus -45.9721 -4.39463 87.9603
lradius 33.9171
lwrist 35.6594
lhand -14.0598 -12.7893
lfingers 7.12502
lthumb 12.0714 16.8425
rfemur -26.4039 0.906587 26.9825
rtibia 37.6396
rfoot -24.7634 14.923
rtoes -10.472
lfemur -28.9806 7.43879 -20.329
ltibia 42.2619
lfoot -24.7996 1.86406
ltoes -15.0092
552
root -4.31462 16.192 4.85325 132.169 -84.1028 -119.269
lowerback -2.83436 1.51758 2.57802
upperback -7.53131 1.83646 0.385085
thorax -6.16266 0.673817 -1.07437
lowerneck 22.9586 -10.8643 -28.526
upperneck -7.02595 -23.7405 44.0814
head 4.28449 -15.3805 21.9756
rclavicle -1.64743e-014 -1.55052e-014
rhumerus -32.5382 -9.74643 -76.5564
rradius 29.1204
rwrist 22.8427
rhand -13.2497 2.88756
rfingers 7.12502
rthumb 12.8525 -26.6967
lclavicle -1.64743e-014 -1.55052e-014
lhumerus -45.7846 -4.40838 87.6872
lradius 33.785
lwrist 35.9269
lhand -14.2293 -12.7706
lfingers 7.12502
lthumb 11.908 16.8707
rfemur -26.5086 1.04495 27.1024
rtibia 37.8006
rfoot -24.5723 14.7538
rtoes -10.1339
lfemur -28.9833 7.66618 -20.2116
ltibia 42.0957
lfoot -24.7351 1.40334
ltoes -15.2458
553
root -4.31677 16.1938 4.8031 130.303 -84.3102 -117.345
lowerback -2.9234 1.29652 2.22807
upperback -7.5041 1.53002 0.279418
thorax -6.09832 0.539785 -0.979862
lowerneck 23.121 -10.8679 -28.285
upperneck -7.22033 -23.7675 44.3927
head 4.24634 -15.4734 22.1628
rclavicle 1.2424e-015 -9.93923e-015
rhumerus -32.8343 -10.1675 -76.6333
rradius 29.0301
rwrist 22.9705
rhand -13.2298 2.9189
rfingers 7.12502
rthumb 12.8716 -26.6642
lclavicle 1.2424e-015 -9.93923e-015
lhumerus -45.5715 -4.36073 87.3718
lradius 33.6258
lwrist 36.2497
lhand -14.2742 -12.7591
lfingers 7.12502
lthumb 11.8647 16.8848
rfemur -26.6518 1.13365 27.1971
rtibia 37.9912
rfoot -24.3593 14.5886
rtoes -9.87125
lfemur -29.0609 7.78493 -20.125
ltibia 41.9974
lfoot -24.5962 0.941807
ltoes -15.4047
554
root -4.31695 16.1957 4.75511 127.792 -84.5271 -114.778
lowerback -2.97721 1.05246 1.91854
upperback -7.47205 1.19525 0.175439
thorax -6.04704 0.389046 -0.906585
lowerneck 23.2602 -10.8704 -28.0535
upperneck -7.40056 -23.792 44.6931
head 4.21482 -15.5623 22.3446
rclavicle 4.96962e-015 7.95139e-016
rhumerus -33.1438 -10.5475 -76.7163
rradius 28.9736
rwrist 23.0851
rhand -13.1458 2.98579
rfingers 7.12502
rthumb 12.9526 -26.5922
lclavicle 4.96962e-015 7.95139e-016
lhumerus -45.3445 -4.27682 87.035
lradius 33.4532
lwrist 36.62
lhand -14.2196 -12.7599
lfingers 7.12502
lthumb 11.9174 16.8809
rfemur -26.8259 1.16851 27.2952
rtibia 38.2189
rfoot -24.1205 14.4447
rtoes -9.69123
lfemur -29.1813 7.79175 -20.0322
ltibia 41.9507
lfoot -24.4204 0.503067
ltoes -15.4265
555
root -4.31531 16.1972 4.70899 124.724 -84.7405 -111.663
lowerback -2.98489 0.793984 1.64054
upperback -7.43716 0.843321 0.0718239
thorax -6.01727 0.227675 -0.851018
lowerneck 23.3817 -10.8739 -27.8261
upperneck -7.56531 -23.8163 44.9784
head 4.18821 -15.6482 22.5162
rclavicle -1.12065e-014 1.66979e-014
rhumerus -33.4814 -10.9322 -76.7978
rradius 28.9509
rwrist 23.2165
rhand -13.0171 3.09398
rfingers 7.12502
rthumb 13.0767 -26.4761
lclavicle -1.12065e-014 1.66979e-014
lhumerus -45.1132 -4.19255 86.7041
lradius 33.272
lwrist 37.0379
lhand -14.1141 -12.7873
lfingers 7.12502
lthumb 12.0191 16.8476
rfemur -27.0285 1.14636 27.3952
rtibia 38.4904
rfoot -23.8557 14.3369
rtoes -9.61485
lfemur -29.313 7.66855 -19.9293
ltibia 41.9347
lfoot -24.2356 0.156824
ltoes -15.3448
556
root -4.31201 16.1984 4.663 121.036 -84.9355 -107.951
lowerback -2.93775 0.523134 1.3704
upperback -7.39607 0.477158 -0.0202784
thorax -6.01087 0.0591254 -0.787878
lowerneck 23.4866 -10.8767 -27.612
upperneck -7.7167 -23.8406 45.2496
head 4.16771 -15.7309 22.6805
rclavicle 4.07509e-015 -1.51076e-014
rhumerus -33.846 -11.2643 -76.8781
rradius 28.9688
rwrist 23.3066
rhand -12.8309 3.24624
rfingers 7.12502
rthumb 13.2561 -26.3122
lclavicle 4.07509e-015 -1.51076e-014
lhumerus -44.8929 -4.14516 86.4122
lradius 33.108
lwrist 37.4839
lhand -14.0167 -12.8166
lfingers 7.12502
lthumb 12.113 16.8128
rfemur -27.24 1.06918 27.5128
rtibia 38.8032
rfoot -23.5594 14.2688
rtoes -9.62172
lfemur -29.4246 7.43557 -19.7998
ltibia 41.9348
lfoot -24.0695 -0.0840154
ltoes -15.1726
557
root -4.30708 16.1994 4.6164 116.855 -85.0908 -103.767
lowerback -2.83329 0.248722 1.09934
upperback -7.35397 0.108047 -0.0937517
thorax -6.03437 -0.110283 -0.704374
lowerneck 23.5816 -10.8833 -27.4124
upperneck -7.85712 -23.8709 45.5009
head 4.15271 -15.8127 22.831
rclavicle 4.12478e-015 2.38542e-015
rhumerus -34.2451 -11.5526 -76.9439
rradius 29.0245
rwrist 23.3629
rhand -12.5839 3.43814
rfingers 7.12502
rthumb 13.4943 -26.1047
lclavicle 4.12478e-015 2.38542e-015
lhumerus -44.6746 -4.11707 86.1634
lradius 32.9363
lwrist 37.8748
lhand -13.98 -12.8469
lfingers 7.12502
lthumb 12.1484 16.7804
rfemur -27.4619 0.932258 27.6608
rtibia 39.157
rfoot -23.2231 14.2601
rtoes -9.64396
lfemur -29.5101 7.12 -19.6369
ltibia 41.9398
lfoot -23.9323 -0.213049
ltoes -14.889
558
root -4.30083 16.2002 4.56902 112.418 -85.1828 -99.3505
lowerback -2.67482 -0.0126979 0.833237
upperback -7.31087 -0.242389 -0.149016
thorax -6.08516 -0.269922 -0.603992
lowerneck 23.6844 -10.8999 -27.2087
upperneck -8.00296 -23.9083 45.7348
head 4.13305 -15.8961 22.9658
rclavicle 3.32964e-015 2.38542e-014
rhumerus -34.6866 -11.8313 -76.985
rradius 29.1179
rwrist 23.3935
rhand -12.2876 3.65093
rfingers 7.12502
rthumb 13.7799 -25.8727
lclavicle 3.32964e-015 2.38542e-014
lhumerus -44.4575 -4.16742 85.9792
lradius 32.7661
lwrist 38.2125
lhand -14.0467 -12.8601
lfingers 7.12502
lthumb 12.0841 16.771
rfemur -27.6904 0.726857 27.8562
rtibia 39.5493
rfoot -22.8389 14.3386
rtoes -9.63419
lfemur -29.565 6.73891 -19.4284
ltibia 41.9478
lfoot -23.8261 -0.205748
ltoes -14.5515
559
root -4.29326 16.2013 4.52102 107.959 -85.2166 -94.9144
lowerback -2.47851 -0.258316 0.561212
upperback -7.27828 -0.571746 -0.182244
thorax -6.16604 -0.418077 -0.476166
lowerneck 23.8053 -10.9218 -27.0134
upperneck -8.15616 -23.9509 45.9499
head 4.10709 -15.9805 23.0896
rclavicle 8.44835e-016 5.56597e-015
rhumerus -35.1729 -12.1189 -76.9808
rradius 29.238
rwrist 23.4335
rhand -11.927 3.89197
rfingers 7.12502
rthumb 14.1274 -25.6077
lclavicle 8.44835e-016 5.56597e-015
lhumerus -44.2475 -4.30049 85.8863
lradius 32.6001
lwrist 38.4344
lhand -14.2765 -12.8162
lfingers 7.12502
lthumb 11.8625 16.8278
rfemur -27.9507 0.435844 28.0884
rtibia 39.9824
rfoot -22.3781 14.5491
rtoes -9.43576
lfemur -29.6161 6.30323 -19.1892
ltibia 41.9594
lfoot -23.7438 -0.0574804
ltoes -14.2119
560
root -4.28379 16.2023 4.47361 103.602 -85.1814 -90.5695
lowerback -2.25641 -0.487107 0.310854
upperback -7.256 -0.878682 -0.19201
thorax -6.2701 -0.555454 -0.334647
lowerneck 23.9358 -10.9527 -26.8242
upperneck -8.31367 -24.0019 46.1463
head 4.07827 -16.0664 23.1984
rclavicle -1.82385e-014 1.51076e-014
rhumerus -35.6816 -12.3642 -76.9506
rradius 29.375
rwrist 23.4398
rhand -11.4868 4.15338
rfingers 7.12502
rthumb 14.5515 -25.3162
lclavicle -1.82385e-014 1.51076e-014
lhumerus -44.0501 -4.55176 85.9042
lradius 32.4471
lwrist 38.5252
lhand -14.6772 -12.736
lfingers 7.12502
lthumb 11.476 16.9299
rfemur -28.264 0.0199283 28.3725
rtibia 40.4603
rfoot -21.8348 14.9196
rtoes -9.05292
lfemur -29.688 5.82942 -18.9119
ltibia 41.9807
lfoot -23.6776 0.212036
ltoes -13.904
561
root -4.27311 16.2032 4.42446 99.8678 -85.0835 -86.8429
lowerback -2.01587 -0.695121 0.0355668
upperback -7.2403 -1.15794 -0.165434
thorax -6.38817 -0.676085 -0.140183
lowerneck 24.0658 -10.9891 -26.659
upperneck -8.46323 -24.0628 46.3208
head 4.0553 -16.1526 23.2923
rclavicle -3.8763e-015 -1.51076e-014
rhumerus -36.1967 -12.563 -76.8892
rradius 29.5135
rwrist 23.4269
rhand -11.0589 4.4025
rfingers 7.12502
rthumb 14.9638 -25.0369
lclavicle -3.8763e-015 -1.51076e-014
lhumerus -43.8505 -4.85294 86.0017
lradius 32.2867
lwrist 38.4781
lhand -15.1806 -12.6445
lfingers 7.12502
lthumb 10.9905 17.0478
rfemur -28.6187 -0.467156 28.7056
rtibia 40.989
rfoot -21.2081 15.4078
rtoes -8.57292
lfemur -29.7697 5.39222 -18.5956
ltibia 42.0149
lfoot -23.636 0.558675
ltoes -13.6934
